<?xml version="1.0" standalone="no"?>
<!DOCTYPE svg PUBLIC "-//W3C//DTD SVG 20010904//EN"
 "http://www.w3.org/TR/2001/REC-SVG-20010904/DTD/svg10.dtd">
<svg version="1.0" xmlns="http://www.w3.org/2000/svg"
 width="252.000000pt" height="252.000000pt" viewBox="0 0 252.000000 252.000000"
 preserveAspectRatio="xMidYMid meet">
<metadata>
Created by potrace 1.11, written by Peter Selinger 2001-2013
</metadata>
<g transform="translate(0.000000,252.000000) scale(0.100000,-0.100000)"
fill="#000000" stroke="none">
<path d="M443 2108 c3 -20 13 -25 68 -36 35 -7 75 -21 89 -31 56 -41 55 -20
57 -742 3 -692 2 -701 -38 -757 -17 -23 -99 -52 -149 -52 -21 0 -26 -5 -26
-25 l0 -25 353 0 353 0 0 25 c0 20 -5 25 -27 26 -70 2 -133 22 -161 52 -35 39
-41 89 -42 388 l-1 289 28 1 c15 0 47 1 71 2 48 3 19 35 276 -303 60 -80 112
-147 115 -150 4 -3 16 -19 28 -36 l21 -31 -36 -64 c-69 -120 -111 -159 -176
-159 -19 0 -26 -5 -26 -20 0 -19 7 -20 186 -20 171 0 185 1 182 17 -2 11 -14
19 -28 21 -79 9 -89 26 -55 92 l22 44 69 -87 68 -87 206 2 c195 3 205 4 205
22 0 15 -12 23 -54 34 -88 22 -114 43 -243 203 -126 156 -122 128 -44 257 84
140 133 183 224 198 32 5 40 11 39 25 -1 18 -13 19 -204 19 -196 0 -203 -1
-203 -20 0 -11 6 -20 13 -21 47 -3 74 -14 86 -37 12 -22 -12 -75 -67 -151
l-31 -42 -78 98 c-43 54 -81 100 -84 103 -3 3 -27 31 -52 62 l-47 57 43 11
c87 22 173 53 216 78 119 67 186 172 197 302 19 221 -99 379 -334 449 -110 33
-113 33 -575 38 l-437 4 3 -23z m809 -93 c157 -40 243 -140 255 -298 12 -156
-51 -275 -180 -343 -53 -28 -181 -54 -294 -60 l-113 -6 0 341 c1 371 0 364 58
377 15 3 31 7 37 8 29 7 183 -5 237 -19z"/>
</g>
</svg>
